<?xml version="1.0" standalone="no"?>
<!DOCTYPE svg PUBLIC "-//W3C//DTD SVG 20010904//EN"
 "http://www.w3.org/TR/2001/REC-SVG-20010904/DTD/svg10.dtd">
<svg version="1.0" xmlns="http://www.w3.org/2000/svg"
 width="900.000000pt" height="980.000000pt" viewBox="0 0 900.000000 980.000000"
 preserveAspectRatio="xMidYMid meet">

<g transform="translate(0.000000,980.000000) scale(0.100000,-0.100000)"
fill="#000000" stroke="none">
<path d="M3485 9794 c-212 -33 -374 -153 -641 -474 -140 -167 -258 -284 -347
-341 -76 -50 -196 -107 -390 -188 -570 -237 -651 -354 -717 -1036 -41 -426
-56 -472 -263 -809 -123 -201 -207 -369 -234 -466 -13 -46 -18 -99 -17 -180 0
-102 4 -125 32 -207 41 -120 92 -221 215 -423 214 -353 240 -436 282 -885 28
-305 65 -462 136 -581 46 -76 157 -179 259 -239 47 -27 189 -93 315 -146 127
-53 255 -109 285 -124 148 -75 267 -182 508 -458 287 -329 431 -411 717 -411
143 1 222 13 465 74 225 56 270 63 420 64 154 0 211 -9 475 -70 337 -79 420
-88 563 -58 205 42 346 148 602 449 263 310 370 390 705 525 191 77 348 153
419 204 92 66 187 173 229 258 63 129 85 244 117 618 33 378 57 454 222 722
194 315 243 416 274 569 21 106 14 254 -17 354 -30 98 -96 225 -207 400 -218
344 -242 415 -277 800 -40 454 -90 630 -220 772 -97 107 -205 169 -546 313
-351 147 -458 225 -696 504 -243 285 -295 331 -455 405 -202 94 -335 94 -748
-4 -263 -62 -345 -75 -465 -75 -118 0 -207 14 -435 69 -91 22 -203 47 -250 55
-88 17 -263 28 -315 20z m1305 -904 c250 -14 406 -50 660 -151 594 -237 1088
-685 1374 -1247 82 -162 144 -314 191 -467 60 -196 65 -237 72 -610 8 -508 -6
-638 -106 -927 -278 -803 -902 -1411 -1721 -1676 -239 -77 -378 -96 -720 -96
-367 0 -578 27 -820 106 -390 126 -718 323 -1009 603 -206 199 -341 371 -479
613 -164 287 -284 662 -321 1004 -14 125 -14 431 0 556 49 455 233 920 506
1283 272 362 705 685 1153 862 115 45 374 118 505 142 86 16 482 19 715 5z"/>
<path d="M4220 8435 c-945 -136 -1674 -849 -1837 -1795 -20 -121 -28 -394 -14
-520 50 -455 219 -854 503 -1185 331 -386 758 -637 1253 -735 139 -28 455 -39
602 -20 253 31 491 100 709 204 365 176 648 430 869 781 84 133 199 373 244
510 57 173 72 274 78 536 14 556 -73 880 -345 1289 -325 488 -831 814 -1430
921 -151 27 -490 35 -632 14z"/>
<path d="M2550 2917 c-130 -334 -700 -1951 -785 -2222 l-43 -140 23 -3 c25 -3
376 53 825 133 l255 45 362 -362 c199 -199 364 -360 367 -357 4 4 254 710 478
1349 157 448 358 1050 358 1071 0 24 -44 32 -410 74 -376 43 -491 63 -599 100
-181 63 -448 190 -648 309 -60 35 -118 68 -130 75 -20 10 -23 7 -53 -72z"/>
<path d="M6274 2905 c-82 -41 -212 -108 -289 -150 -293 -157 -453 -199 -945
-250 -314 -32 -423 -45 -429 -51 -6 -6 25 -103 199 -614 206 -604 570 -1641
629 -1793 11 -27 11 -27 41 -12 36 19 248 227 511 503 l184 192 115 -20 c351
-62 956 -160 990 -160 4 0 4 16 -2 36 -28 103 -552 1601 -737 2106 -85 233
-107 288 -115 288 -2 0 -71 -34 -152 -75z"/>
</g>
</svg>
